<?xml version="1.0" encoding="iso-8859-1"?>
<!-- Generator: Adobe Illustrator 17.1.0, SVG Export Plug-In . SVG Version: 6.00 Build 0)  -->
<!DOCTYPE svg PUBLIC "-//W3C//DTD SVG 1.1//EN" "http://www.w3.org/Graphics/SVG/1.1/DTD/svg11.dtd">
<svg version="1.1" id="Capa_1" xmlns="http://www.w3.org/2000/svg" xmlns:xlink="http://www.w3.org/1999/xlink" x="0px" y="0px"
	 viewBox="0 0 195 195" style="enable-background:new 0 0 195 195;" xml:space="preserve">
<path style="fill:#222221;" d="M145.5,195h-96c-1.381,0-2.5-1.119-2.5-2.5V2.5C47,1.119,48.119,0,49.5,0h96
	c1.381,0,2.5,1.119,2.5,2.5v190C148,193.881,146.881,195,145.5,195z M52,190h91V5H52V190z M65.785,117.451
	c-2.547,0-4.618-2.071-4.618-4.618s2.071-4.618,4.618-4.618c1.626,0,3.058,0.845,3.881,2.118h10.952c1.381,0,2.5,1.119,2.5,2.5
	s-1.119,2.5-2.5,2.5H69.666C68.843,116.606,67.411,117.451,65.785,117.451z M129.333,98h-25.666c-1.381,0-2.5-1.119-2.5-2.5V63.4
	c0-1.381,1.119-2.5,2.5-2.5h25.666c1.381,0,2.5,1.119,2.5,2.5v32.1C131.833,96.881,130.714,98,129.333,98z M106.167,93h20.666V65.9
	h-20.666V93z M91.333,98H65.667c-1.381,0-2.5-1.119-2.5-2.5V63.4c0-1.381,1.119-2.5,2.5-2.5h25.666c1.381,0,2.5,1.119,2.5,2.5v32.1
	C93.833,96.881,92.714,98,91.333,98z M68.167,93h20.666V65.9H68.167V93z M129.333,54.766h-25.666c-1.381,0-2.5-1.119-2.5-2.5V20.167
	c0-0.73,0.319-1.424,0.874-1.899c0.555-0.474,1.293-0.684,2.011-0.57l25.666,4c1.218,0.189,2.115,1.237,2.115,2.47v28.099
	C131.833,53.646,130.714,54.766,129.333,54.766z M106.167,49.766h20.666V26.308l-20.666-3.221V49.766z M91.333,54.766H65.667
	c-1.381,0-2.5-1.119-2.5-2.5V24.167c0-1.232,0.897-2.28,2.115-2.47l25.666-4c0.72-0.115,1.456,0.096,2.011,0.57
	c0.555,0.476,0.874,1.169,0.874,1.899v32.099C93.833,53.646,92.714,54.766,91.333,54.766z M68.167,49.766h20.666V23.087
	l-20.666,3.221V49.766z"/>
<g>
</g>
<g>
</g>
<g>
</g>
<g>
</g>
<g>
</g>
<g>
</g>
<g>
</g>
<g>
</g>
<g>
</g>
<g>
</g>
<g>
</g>
<g>
</g>
<g>
</g>
<g>
</g>
<g>
</g>
</svg>
