<?xml version="1.0" encoding="iso-8859-1"?>
<!-- Generator: Adobe Illustrator 19.0.0, SVG Export Plug-In . SVG Version: 6.00 Build 0)  -->
<svg version="1.1" id="Layer_1" xmlns="http://www.w3.org/2000/svg" xmlns:xlink="http://www.w3.org/1999/xlink" x="0px" y="0px"
	 viewBox="0 0 512 512" style="enable-background:new 0 0 512 512;" xml:space="preserve">
<g transform="translate(1 1)">
	<g>
		<g>
			<path d="M273.773,152.6c15.36,0,28.16-12.8,28.16-29.013v-11.093c0-15.36-12.8-28.16-28.16-28.16h-130.56
				c-16.213,0-29.013,12.8-29.013,29.013v11.093c0,15.36,12.8,28.16,29.013,28.16H273.773z M131.267,123.587v-11.093
				c0-5.973,5.12-11.093,11.947-11.093v0.853h130.56c5.973,0,11.093,5.12,11.093,11.093v11.093c0,5.973-5.12,11.093-11.093,11.093
				h-130.56C136.387,135.533,131.267,130.413,131.267,123.587z"/>
			<path d="M395.8,255h-59.733V33.133C336.067,14.36,320.707-1,301.933-1H114.2C95.427-1,80.067,14.36,80.067,33.133v443.733
				C80.067,495.64,95.427,511,114.2,511h187.733c18.773,0,34.133-15.36,34.133-34.133v-153.6H395.8
				c18.773,0,34.133-15.36,34.133-34.133C429.933,270.36,414.573,255,395.8,255z M319,476.867c0,9.387-7.68,17.067-17.067,17.067
				H114.2c-9.387,0-17.067-7.68-17.067-17.067H139.8c5.12,0,8.533-3.413,8.533-8.533s-3.413-8.533-8.533-8.533H97.133v-17.067h25.6
				c5.12,0,8.533-3.413,8.533-8.533s-3.413-8.533-8.533-8.533h-25.6V33.133c0-9.387,7.68-17.067,17.067-17.067h187.733
				c9.387,0,17.067,7.68,17.067,17.067V255h-52.15c-11.97-20.942-34.274-34.133-58.783-34.133c-37.547,0-68.267,30.72-68.267,68.267
				s30.72,68.267,68.267,68.267c24.784,0,47.321-13.483,59.19-34.133H319V476.867z M233.667,323.267h12.8
				c-10.24,10.24-23.893,17.067-38.4,17.067c-28.16,0-51.2-23.04-51.2-51.2c0-28.16,23.04-51.2,51.2-51.2
				c14.507,0,28.16,6.827,38.4,17.067h-12.8c-18.773,0-34.133,15.36-34.133,34.133C199.533,307.907,214.893,323.267,233.667,323.267
				z M395.8,306.2h-68.267h-65.707h-28.16c-9.387,0-17.067-7.68-17.067-17.067s7.68-17.067,17.067-17.067h28.16h65.707H395.8
				c9.387,0,17.067,7.68,17.067,17.067S405.187,306.2,395.8,306.2z"/>
		</g>
	</g>
</g>
<g>
</g>
<g>
</g>
<g>
</g>
<g>
</g>
<g>
</g>
<g>
</g>
<g>
</g>
<g>
</g>
<g>
</g>
<g>
</g>
<g>
</g>
<g>
</g>
<g>
</g>
<g>
</g>
<g>
</g>
</svg>
