<?xml version="1.0" encoding="iso-8859-1"?>
<!-- Generator: Adobe Illustrator 19.0.0, SVG Export Plug-In . SVG Version: 6.00 Build 0)  -->
<svg version="1.1" id="Capa_1" xmlns="http://www.w3.org/2000/svg" xmlns:xlink="http://www.w3.org/1999/xlink" x="0px" y="0px"
	 viewBox="0 0 512 512" style="enable-background:new 0 0 512 512;" xml:space="preserve">
<g>
	<g>
		<g>
			<path d="M288,96V0H0v512h288V192h224V96H288z M256,480H32V32h224v64h-48.336c-26.51-35.346-76.654-42.51-112-16
				s-42.51,76.654-16,112c26.51,35.346,76.654,42.51,112,16c6.064-4.548,11.452-9.936,16-16H256V480z M480,160H189.92l-4.624,8
				c-8.448,14.844-24.216,24.008-41.296,24c-26.51,0-48-21.49-48-48s21.49-48,48-48c17.08-0.008,32.848,9.156,41.296,24l4.624,8H480
				V160z"/>
			<rect x="128" y="128" width="32" height="32"/>
			<rect x="128" y="256" width="32" height="32"/>
			<rect x="128" y="320" width="32" height="128"/>
		</g>
	</g>
</g>
<g>
</g>
<g>
</g>
<g>
</g>
<g>
</g>
<g>
</g>
<g>
</g>
<g>
</g>
<g>
</g>
<g>
</g>
<g>
</g>
<g>
</g>
<g>
</g>
<g>
</g>
<g>
</g>
<g>
</g>
</svg>
